<?xml version="1.0" encoding="UTF-8" standalone="no"?>
<svg xmlns="http://www.w3.org/2000/svg" width="500" height="500" viewBox="0 0 500 500">
  <rect width="500" height="500" fill="#004080"/>
  <g fill="#FFFFFF">
    <!-- J Letter -->
    <path d="M155 100c0 0 0 200 0 220c0 20 -10 40 -40 40c-15 0 -30 -5 -40 -15l15 -25c5 5 15 10 25 10c15 0 20 -10 20 -30c0 0 0 -200 0 -200l20 0z"/>
    <!-- K Letter -->
    <path d="M225 100l0 260l-20 0l0 -120l-80 120l-25 0l85 -130l-80 -130l25 0l75 120l0 -120l20 0z"/>
    <!-- Cross Symbol -->
    <path d="M350 180l-30 0l0 -40l-30 0l0 40l-30 0l0 30l30 0l0 40l30 0l0 -40l30 0z"/>
    <!-- Circular Background for Cross -->
    <circle cx="320" cy="195" r="60" fill="#004080" stroke="#FFFFFF" stroke-width="8"/>
    <!-- Cross Inside Circle -->
    <path d="M340 195l-20 0l0 -20l-15 0l0 20l-20 0l0 15l20 0l0 20l15 0l0 -20l20 0z" fill="#FFFFFF"/>
  </g>
</svg> 